<?xml version="1.0" encoding="utf-8"?>
<!-- Generator: Adobe Illustrator 28.3.0, SVG Export Plug-In . SVG Version: 6.00 Build 0)  -->
<svg version="1.1" id="Laag_1" xmlns="http://www.w3.org/2000/svg" xmlns:xlink="http://www.w3.org/1999/xlink" x="0px" y="0px"
	 viewBox="0 0 82.6 95.4" style="enable-background:new 0 0 82.6 95.4;" xml:space="preserve">
<style type="text/css">
	.st0{fill:#4D5061;}
</style>
<g id="Laag_1_00000177450511956651442920000006743620955763114431_">
	<path class="st0" d="M41.3,0L0,23.8v47.7l41.3,23.8l41.3-23.8V23.8L41.3,0z M65.8,65.8H42.2c-2,0-3.7-1.1-4.6-2.8l-9.7-16.7
		c-0.1-0.2-0.3-0.4-0.5-0.5c-0.7-0.4-1.6-0.2-2,0.5l-5.8,10c-0.1,0.2-0.2,0.5-0.2,0.7c0,0.8,0.7,1.4,1.4,1.4h4.7c1,0,2,0.5,2.5,1.4
		l3.5,6.1H16.8c-1.1,0-2.1-0.2-3-0.7c-3.2-1.7-4.5-5.7-2.8-8.9l0.1-0.2l11-19.1c0.5-0.8,1.1-1.5,1.9-1.9c2.5-1.4,5.6-0.6,7.1,1.9
		L42.7,57c0.5,0.9,1.5,1.4,2.5,1.4h16.6c0.8,0,1.4-0.6,1.4-1.4c0-0.2-0.1-0.5-0.2-0.7l-6.8-11.8c-0.1-0.2-0.3-0.4-0.5-0.5
		c-0.7-0.4-1.5-0.2-2,0.5l-2.8,4.9c-0.2,0.5-0.6,0.8-1.1,1.1c-1.4,0.8-3.1,0.3-3.9-1.1L31.3,23.9c-0.2-0.4-0.4-0.9-0.4-1.4
		s0.1-1,0.4-1.4l3.5-6.1l13,22.6c0.1,0.2,0.4,0.4,0.6,0.4c0.2,0,0.5-0.1,0.6-0.4l1.4-2.5c0.5-0.8,1.1-1.5,1.9-1.9
		c2.5-1.4,5.7-0.6,7.1,1.9l12.2,21.1c0.5,0.9,0.7,2,0.7,3C72.4,62.9,69.4,65.8,65.8,65.8z"/>
</g>
</svg>
