<?xml version="1.0" encoding="utf-8"?>
<!-- Generator: Adobe Illustrator 28.3.0, SVG Export Plug-In . SVG Version: 6.00 Build 0)  -->
<svg version="1.1" id="Layer_1" xmlns="http://www.w3.org/2000/svg" xmlns:xlink="http://www.w3.org/1999/xlink" x="0px" y="0px"
	 viewBox="0 0 5732 1379.1" style="enable-background:new 0 0 5732 1379.1;" xml:space="preserve">
<style type="text/css">
	.st0{fill:#4D5061;}
</style>
<path class="st0" d="M1838.8,1287.2L2482.7,24.6h-292.8c-95,0-150.2,124.2-150.2,124.2l-286.9,631.5c-15.5,33.9-27.9,66.3-37.8,95.1
	c0.3-12.6,0.6-25.5,0.6-39.1c0-16.5-0.3-33.5-1.2-50.7l-24-635.5c-5.8-121.5-153.6-125.5-153.6-125.5h-260.7L1423.1,1357h304.4
	C1727.6,1357,1801.9,1359.8,1838.8,1287.2 M5670.2,211l61.8-103.5l-11.4-7.8c-95-65.9-213.5-99.1-352.3-99.1
	c-338.6,0-521.1,242.2-521.1,470c0,178,115,246.2,207.5,300.9c69.5,41.2,129.4,76.7,129.4,147.3c0,80.7-62.7,166.3-178.9,166.3
	c-47.9,0-90.4-7.7-125-18.7c-83.5-24.6-128.7,15.8-147.3,44.7c-15.8,24.8-95.6,158.5-95.6,158.5l10.5,7.9
	c79.1,59.4,224.8,99.4,362.2,99.4c403.4,0,587.2-258.7,587.2-499c0-173.7-122.5-244.8-221-302.2c-75-43.5-139.7-81.2-139.7-151
	c0-88,71.8-154.3,167.1-154.3c36.9,0,72,6.6,102.4,16.4C5506.1,286.9,5597.9,324.8,5670.2,211 M4196.9,1368.5h325.2l185.5-911.7
	c8.4-43,12.1-76.1,12.1-107.6c0.1-157.5-86.1-345.3-497.3-345.3c-209.4,0-407.5,35.1-557.6,98.5l-7,3l-230.6,1119
	c0,0,275.3-109.5,340.2-138.4c92.6-41.2,113.3-126.4,135.9-227.2c36.6-163.7,114.5-552.3,117.3-566.2c36.9-11.3,90-23.8,149.5-23.8
	c96.3,0,147.2,39.6,147.2,114.5c0,15.5-2.2,31.3-6.6,50.1c-0.1,0.4-118,590.2-166.4,832.8
	C4144.3,1266.2,4116.4,1372.6,4196.9,1368.5 M793.3,0.1C648.4,1.3,579.2,12.5,482.9,34c-32.2,7.3-86.8,23.3-119.4,36.9
	c-101.3,43.9-79.4,176.8-62.5,276.7l0.3,0.4c89.3-33.3,214.4-84.7,355.8-84.7c81.8,0,134.1,15.1,159.3,46.1
	c13.1,16.2,19.7,37.4,19.7,64.2c0,13.8-1.8,29.1-5.2,46c0,0-7.4,35.6-10.4,49.9l-42.4,203.2c-7.3,35.1-89.5,430.9-92.5,445.2
	c-34.4,14.6-79.1,22.7-127.3,22.7c-73.7,0-125-17.3-152.7-51.2c-17.4-21.4-26.1-50.4-26.1-86.5c0-18.8,2.3-39.4,7-61.8
	c29.8-143.3,151.9-207.3,235.8-241.6c39.4-16.2,52.9-77.7,62.2-122.1l16.6-94.2C394.2,525.2,77.8,628.9,11.2,949.7
	C3.6,985.7,0,1019.6,0,1051.4c0,73.7,20.1,135.6,60.2,185c75.9,93.1,222.7,140.4,436.3,140.4c208.8,0,394.8-34.8,523.8-98l6.2-3.1
	l162.8-783c32.9-158.4,15.3-280.5-52-363.4C1070.1,46.9,955.7,1.6,793.3,0V0.1z M3054.2,0.1c-144.9,1.2-214.1,12.3-310.4,33.9
	c-32.2,7.3-86.8,23.3-119.4,36.9c-101.3,43.9-79.4,176.8-62.5,276.7l0.3,0.4c89.3-33.3,214.4-84.7,355.8-84.7
	c81.8,0,134.1,15.1,159.3,46.1c13.1,16.2,19.7,37.4,19.7,64.2c0,13.8-1.8,29.1-5.2,46c0,0-7.4,35.6-10.4,49.9L3039.1,673
	c-7.3,35.1-89.5,430.9-92.5,445.2c-34.4,14.6-79.1,22.7-127.3,22.7c-73.7,0-125-17.3-152.7-51.2c-17.4-21.4-26.1-50.4-26.1-86.5
	c0-18.8,2.3-39.4,7-61.8c29.8-143.3,151.9-207.3,235.8-241.6c39.4-16.2,52.9-77.7,62.2-122.1l16.6-94.2
	c-307.1,42.1-623.5,145.9-690,466.7c-7.5,36.1-11.2,70-11.2,101.7c0,73.7,20.1,135.6,60.2,185c75.9,93.1,222.7,140.4,436.3,140.4
	c208.8,0,394.8-34.8,523.7-98l6.4-3.1l162.8-783c32.9-158.4,15.3-280.5-52-363.4C3331,46.9,3216.6,1.6,3054.1,0L3054.2,0.1
	L3054.2,0.1z"/>
</svg>
