<?xml version="1.0" encoding="utf-8"?>
<!-- Generator: Adobe Illustrator 28.3.0, SVG Export Plug-In . SVG Version: 6.00 Build 0)  -->
<svg version="1.1" id="Layer_1" xmlns="http://www.w3.org/2000/svg" xmlns:xlink="http://www.w3.org/1999/xlink" x="0px" y="0px"
	 viewBox="0 0 2978.3 2978.3" style="enable-background:new 0 0 2978.3 2978.3;" xml:space="preserve">
<style type="text/css">
	.st0{fill:#4D5061;}
</style>
<g>
	<path class="st0" d="M523.1,2390.3L523.1,2390.3c-7.8,0-17,0.8-23.7,1.4v63.7c0,0,14.5,1.8,23.7,1.8c21.6,0,32.9-14.7,32.9-35.1
		C556,2404.1,543.6,2390.3,523.1,2390.3z"/>
	<path class="st0" d="M1639.3,2390.3L1639.3,2390.3c-7.8,0-17,0.8-23.7,1.4v63.7c0,0,14.5,1.8,23.7,1.8c21.6,0,33-14.7,33-35.1
		C1672.3,2404.1,1659.8,2390.3,1639.3,2390.3z"/>
	<path class="st0" d="M770,2392.4c-38.9,0-72.5,28.7-72.5,78.5c0,52.1,35.4,78.2,72.5,78.2c39.7,0,72.9-25.5,72.9-77.9
		C843,2420.8,811.5,2392.4,770,2392.4z"/>
	<path class="st0" d="M674.5,2149.5c39.6,0,72.9-25.5,72.9-77.8c0-50.6-31.4-79-72.9-79c-39,0-72.5,28.7-72.5,78.6
		C602,2123.3,637.4,2149.5,674.5,2149.5z"/>
	<path class="st0" d="M2393.7,2149.5c39.6,0,72.9-25.5,72.9-77.8c-0.1-50.6-31.5-79-72.9-79c-38.9,0-72.6,28.7-72.6,78.6
		C2321.1,2123.3,2356.5,2149.5,2393.7,2149.5z"/>
	<path class="st0" d="M2036.6,2071.3c0,52,35.4,78.2,72.5,78.2c39.6,0,73-25.5,73-77.8c-0.1-50.6-31.6-79-73-79
		C2070.2,1992.7,2036.6,2021.4,2036.6,2071.3z"/>
	<path class="st0" d="M2476.5,0H501.7C501.7,0,0,0,0,501.8v1974.7c0,0.1,0,501.8,501.8,501.8h2476.5V501.7
		C2978.3,501.7,2978.3,0,2476.5,0z M2519.7,2067.5c0,76.4-55.3,128.4-129,128.4c-68.5,0-122.4-50.3-122.4-121
		c0-73.3,53.1-129.5,126.4-129.5C2465.5,1945.4,2519.7,1993.8,2519.7,2067.5z M1553.4,341.9l35.3,183.4
		c258.5-141,496.2-105.4,531.9,80.5c8.2,42,5.2,88.1-7.1,136c-22.1,85.5-74.1,176.7-147.2,260.2v0c0,0.1,0.2,0.3,0.2,0.8
		c28.8,59.2,125.5,63.1,230.2,5.4c98.6-54.5,172.2-146.2,182.6-220.5c26.3,186.3-153.1,446.1-408.1,587
		c-258.1,142.4-496.2,109.2-535.5-73.3l-0.2,0.1l-0.9-4.8c0,0,0-0.1-0.1-0.3l-51.9-269.7c31.2-36.8,58.9-79.2,78.9-123.8
		c56.6-126,32.1-220.9-55-211.9c-25.6,2.6-53.8,14.2-82.3,32.1L1279.9,493L1553.4,341.9z M2235,2067.5
		c0,76.4-55.1,128.4-128.8,128.4c-68.6,0-122.5-50.3-122.5-121c0-73.3,53.1-129.5,126.3-129.5
		C2180.9,1945.4,2235,1993.8,2235,2067.5z M1798.4,2089.4v101.1h-49.7v-241h49.7v94.5h94.4v-94.5h49.5v241h-49.5v-101.1H1798.4z
		 M1386.2,2095l-32.6-10.6c-47.8-15.5-52.8-39.6-52.8-71.5c0-30.1,30.5-67.6,79.4-67.6c36.8,0,53.8,5.2,74.4,19.5l-11.7,51.7
		c-22.3-19.8-39.6-25.2-59.4-25.2c-18.1,0-31.2,10.2-31.2,20.6c0,13.1,7.5,20.1,25.5,26.2l30.1,10c45.3,14.8,55.2,40.3,55.2,74
		c0,37.7-36.5,72.7-83.9,72.7c-43.2,0-67.9-13.8-85-23.7l10.6-51.8c18.8,15.3,51.7,29.8,70.8,29.8c22.3,0,35.1-10.2,35.1-24.4
		C1410.7,2110.2,1402.9,2100.3,1386.2,2095z M1188.4,543.4l48.9,254c-36.1,39.8-68.3,87.3-91,137.7c-56.6,125.9-32.1,220.8,55,211.9
		l0,0c29.6-3.1,62.5-17.9,95.4-40.8l47.3,245.6L805.7,1649L650.1,840.6L1188.4,543.4z M1242.2,2043.7v43.8h-87.7v59.5h104.7v43.5
		h-154.6v-241h145.8v43.6h-95.9v50.6H1242.2z M966.6,2194.5L966.6,2194.5L966.6,2194.5c-68.7,0-132.4-30.5-132.4-123.6
		c0-81.8,55.6-125,130.9-125c38.6,0,64.4,10.9,75.7,19.5l-13.8,47.1c-11.3-9.3-35.7-21-64.8-21c-40.7,0-73.9,25.2-73.9,79.4
		c0,53.4,33.6,81,83.2,81c10.6,0,28.7-1.1,36.1-6.4v-69h48.2v95.6C1039.4,2183.2,1006.9,2194.5,966.6,2194.5
		C966.6,2194.5,966.6,2194.5,966.6,2194.5z M675.5,1945.4c70.8,0,124.9,48.4,124.9,122.1c0.1,76.4-55.1,128.4-128.8,128.4
		c-68.6,0-122.4-50.3-122.4-121C549.2,2001.6,602.3,1945.4,675.5,1945.4z M363.8,2190.5h-49.6v-241h49.6v94.5h94.4v-94.5h49.6v241
		h-49.6v-101.1h-94.4V2190.5z M583.9,2591.4L583.9,2591.4l-69.4-94.8l-14.9-0.4v94.1h-49.5V2350c0,0,42.1-3.2,71.1-3.2
		c57.3,0,84.6,27.2,84.6,74c0,35.9-21.5,59.4-38.5,67.8l70.4,92L583.9,2591.4z M767.3,2595.6L767.3,2595.6
		c-68.7,0-122.5-50.3-122.5-121c0-73.2,53.1-129.5,126.4-129.5c70.8,0,125,48.4,125,122.1C896.1,2543.6,840.8,2595.6,767.3,2595.6z
		 M1106.7,2396.3h-67.6v193.9h-49.6V2397h-68.3v-47.4h185.5V2396.3z M1325.4,2396.3h-67.6v193.9h-49.6V2397h-68.4v-47.4h185.6
		V2396.3z M1516.2,2590.2h-154.7v-240.9h145.8v43.5h-95.9v50.6h87.7v43.9h-87.7v59.5h104.8V2590.2z M1497.8,2074.8
		c0-75.1,43.2-128.2,122.9-128.2c43.9,0,72.2,19.9,72.2,19.9l-16.6,47.4c-17.1-13.4-33.4-20.2-58.4-20.2
		c-41.5,0-68.7,29.8-68.7,75.8c0,55.9,41,76.4,76.1,76.4c27.6,0,42.2-6.3,58.7-20.6l17,44.2c-25.2,19.7-53.5,25-83.2,25
		C1557.9,2194.5,1497.8,2163.2,1497.8,2074.8z M1700.2,2591.4L1700.2,2591.4l-69.4-94.8l-14.8-0.4v94.1h-49.6V2350
		c0,0,42.2-3.2,71.1-3.2c57.5,0,84.7,27.2,84.7,74c0,35.9-21.7,59.4-38.5,67.8l70.4,92L1700.2,2591.4z M1862,2594.5L1862,2594.5
		c-35.8,0-76.5-5.3-76.5-5.3v-239.6c0,0,43.9-4.6,79.3-4.6c95.3,0,132.4,51,132.4,114.7C1997.1,2529.4,1961.8,2594.5,1862,2594.5z
		 M2186.8,2591L2186.8,2591l-24.7-60.5h-84.2l-24.9,59.7h-51.6l101.6-240.6h42.7l94.2,241L2186.8,2591z M2526.7,2591l-32.9-139.4
		l-63.7,139h-35.5l-61.8-139l-29.9,139l-48.1-0.4l52.8-237.1h41.1l67.2,160l73.3-163.5h36.1l56.6,240.6L2526.7,2591z M2717.8,2190.5
		h-154.6v-241h49.6v196.4h105V2190.5z"/>
	<path class="st0" d="M1870.5,2390.3L1870.5,2390.3c-12.8,0-34.8,1.8-34.8,1.8v155.3c6.3,2.1,19.1,4.2,37.2,4.2
		c42.5,0,72.6-39.7,72.6-84.9C1945.5,2416.5,1905.9,2390.3,1870.5,2390.3z"/>
	<polygon class="st0" points="2090.6,2492 2149.7,2492 2121.4,2412.6 	"/>
</g>
</svg>
