<?xml version="1.0" encoding="utf-8"?>
<!-- Generator: Adobe Illustrator 28.3.0, SVG Export Plug-In . SVG Version: 6.00 Build 0)  -->
<svg version="1.1" id="Laag_2_00000033348641544584722590000013616597110008374421_"
	 xmlns="http://www.w3.org/2000/svg" xmlns:xlink="http://www.w3.org/1999/xlink" x="0px" y="0px" viewBox="0 0 189.9 59.4"
	 style="enable-background:new 0 0 189.9 59.4;" xml:space="preserve">
<style type="text/css">
	.st0{fill:#4D5061;}
</style>
<g id="Laag_1-2">
	<path class="st0" d="M189.9,0v11.9c0,24.2-18.1,44.2-41.5,47.1c-1.9,0.2-3.9,0.4-5.9,0.4s-4-0.1-5.9-0.4
		c-23.4-2.9-41.5-22.9-41.5-47.1H53.4v0c0,6.6-5.3,11.9-11.9,11.9h0V11.9H11.9C5.3,11.9,0,6.6,0,0v0h106.8v11.2
		c0,20,16.3,36.7,36.3,36.3c19.3-0.4,34.9-16.1,34.9-35.6h-11.9v0C166.1,5.3,171.5,0,178,0H189.9z"/>
</g>
</svg>
