<svg width="845" height="235" viewBox="0 0 845 235" fill="none" xmlns="http://www.w3.org/2000/svg">
<path d="M652.521 23.5541C572.547 46.5428 486.657 65.2412 412.85 105.151C392.934 115.92 343.067 145.875 348.691 176.98C353.077 201.238 402.031 199.663 417.194 199.562C449.338 199.347 494.61 194.439 524.855 190.152C600.493 179.43 677.155 165.801 750.162 142.836C760.122 139.704 851.952 113.501 839.182 82.7923C829.279 58.9767 769.704 57.0757 750.558 55.3691C712.328 51.9616 671.86 51.4616 633.755 57.0597C617.433 59.4577 618.057 62.2302 628.913 66.8544" stroke="#F5CC5C" stroke-width="8" stroke-linecap="round"/>
<path d="M347 112.765C330.627 101.811 310.981 99.0674 293.06 95.087C255.64 86.7757 217.309 83.4116 179.356 84.0833C133.985 84.8864 79.8295 100.214 40 129" stroke="#F5CC5C" stroke-width="8" stroke-linecap="round"/>
<path d="M36.9768 103C24.5784 117.214 -20.5841 157.657 21.6902 151.334C40.3781 148.539 59.0144 136.728 77 129.565" stroke="#F5CC5C" stroke-width="8" stroke-linecap="round"/>
</svg>
