<svg width="291" height="296" viewBox="0 0 291 296" fill="none" xmlns="http://www.w3.org/2000/svg">
<path d="M179.237 13.6316C132.954 26.936 83.2458 37.7574 40.5309 60.8548C29.0049 67.0872 0.144767 84.4231 3.39982 102.425C5.9383 116.464 34.2693 115.552 43.045 115.494C61.648 115.369 87.8485 112.529 105.352 110.048C149.127 103.843 193.494 95.955 235.746 82.6646C241.51 80.8515 294.655 65.687 287.265 47.9149C281.533 34.1319 247.055 33.0318 235.975 32.0441C213.85 30.0721 190.43 29.7827 168.376 33.0225C158.93 34.4103 159.292 36.0149 165.575 38.6911" stroke="#F5CB5C" stroke-width="5" stroke-linecap="round"/>
<path d="M230.146 99.12C233.205 110.501 230.984 122.158 229.795 133.076C227.312 155.873 221.852 178.235 214.177 199.607C205.003 225.157 185.912 252.893 161.949 269.925" stroke="#F5CB5C" stroke-width="5" stroke-linecap="round"/>
<path d="M176.098 276.635C165.663 280.927 134.071 298.741 145.778 276.006C150.953 265.956 161.225 257.668 168.74 248.855" stroke="#F5CB5C" stroke-width="5" stroke-linecap="round"/>
</svg>
