<svg width="625" height="627" viewBox="0 0 625 627" fill="none" xmlns="http://www.w3.org/2000/svg">
<path d="M51.5404 164.036L50.5298 163.424L52.6144 159.979C53.1372 159.115 53.4785 158.242 53.6383 157.36C53.7981 156.477 53.7318 155.66 53.4394 154.907C53.126 154.141 52.5377 153.496 51.6746 152.973C50.4535 152.233 49.2448 152.091 48.0484 152.546C46.8437 152.968 45.8078 153.895 44.9408 155.328L43.0857 158.393L62.0961 169.916L64.1424 166.534C64.8182 165.417 65.2216 164.323 65.3526 163.25C65.4837 162.178 65.3315 161.193 64.8962 160.296C64.4399 159.385 63.6644 158.599 62.5696 157.935C61.7907 157.463 61.0173 157.196 60.2493 157.133C59.4603 157.058 58.7064 157.163 57.9877 157.447C57.2479 157.719 56.5687 158.128 55.9502 158.675C55.3444 159.2 54.812 159.842 54.353 160.601L52.0772 164.361L51.0667 163.749L53.419 159.862C53.9673 158.956 54.6291 158.147 55.4044 157.437C56.1588 156.713 56.982 156.161 57.8742 155.78C58.7792 155.378 59.7317 155.207 60.7318 155.266C61.7237 155.291 62.7249 155.61 63.7354 156.223C65.188 157.103 66.1967 158.147 66.7616 159.353C67.3265 160.559 67.5026 161.861 67.29 163.258C67.0902 164.635 66.5568 166.039 65.6898 167.472L62.5916 172.592L40.4865 159.194L43.3935 154.39C44.1967 153.062 45.0852 152.046 46.0589 151.34C47.0454 150.614 48.098 150.229 49.2168 150.187C50.3145 150.133 51.4528 150.463 52.6317 151.177C53.7054 151.828 54.4449 152.651 54.8502 153.645C55.2473 154.606 55.3484 155.675 55.1536 156.853C54.9377 158.018 54.4537 159.222 53.7015 160.465L51.5404 164.036Z" fill="#1D1D1B"/>
<path d="M66.3409 143.57L67.6467 141.734L82.8091 141.695L81.3535 143.742L66.3409 143.57ZM52.7848 139.311L53.9622 137.655L75.0169 152.652L73.8396 154.308L52.7848 139.311ZM54.8794 139.488L53.4056 138.438L56.2099 134.494C57.1804 133.13 58.2844 132.087 59.5221 131.366C60.774 130.625 62.0723 130.265 63.4171 130.286C64.7618 130.306 66.0859 130.781 67.3893 131.709C68.6726 132.623 69.5543 133.72 70.0343 134.999C70.5143 136.278 70.6096 137.631 70.3201 139.058C70.025 140.45 69.3921 141.828 68.4217 143.193L65.6174 147.136L64.1435 146.086L66.9479 142.143C67.7042 141.079 68.2045 140.015 68.4488 138.949C68.6873 137.849 68.6297 136.825 68.2762 135.878C67.9026 134.917 67.2145 134.079 66.2119 133.365C65.2093 132.651 64.1958 132.292 63.1716 132.288C62.1615 132.264 61.1835 132.534 60.2374 133.1C59.2914 133.666 58.4401 134.481 57.6837 135.544L54.8794 139.488Z" fill="#1D1D1B"/>
<path d="M80.6271 130.211L79.586 128.465L87.2638 119.333L89.1605 120.062L80.6271 130.211ZM74.5476 116.495L80.665 128.214L80.8613 128.67L85.6252 137.752L84.1514 139.505L70.9601 113.474L98.8414 122.033L97.3676 123.786L87.7488 120.708L87.2627 120.54L74.5476 116.495Z" fill="#1D1D1B"/>
<path d="M98.209 85.7754L99.6605 84.3543L118.429 103.556L88.6154 101.164L103.692 116.588L102.241 118.009L83.4721 98.8077L113.338 101.253L98.209 85.7754Z" fill="#1D1D1B"/>
<path d="M108.125 76.5958L109.709 75.3249L125.871 95.5069L124.286 96.7777L108.125 76.5958ZM129.76 92.3875L125.151 96.0845L123.881 94.4988L128.49 90.8018C129.738 89.8005 130.71 88.6898 131.405 87.4697C132.118 86.2343 132.548 84.9587 132.693 83.6429C132.822 82.3079 132.664 80.9674 132.216 79.6214C131.773 78.2408 131.036 76.9065 130.005 75.6187C128.973 74.3309 127.841 73.3298 126.606 72.6154C125.375 71.8663 124.103 71.4193 122.788 71.2743C121.458 71.11 120.113 71.242 118.752 71.6702C117.411 72.083 116.117 72.79 114.868 73.7913L110.259 77.4883L108.989 75.9026L113.598 72.2056C115.557 70.6343 117.615 69.6785 119.771 69.3381C121.946 68.9823 124.055 69.2324 126.096 70.0884C128.142 70.9099 129.973 72.3297 131.589 74.3479C133.205 76.3661 134.199 78.4733 134.57 80.6695C134.945 82.8312 134.721 84.9356 133.901 86.9829C133.099 89.0147 131.719 90.8163 129.76 92.3875Z" fill="#1D1D1B"/>
<path d="M131.168 58.7289L132.828 57.5581L147.717 78.6976L146.058 79.8685L131.168 58.7289Z" fill="#1D1D1B"/>
<path d="M155.539 42.9147L157.275 41.8599L171.206 64.819L142.71 55.7263L153.902 74.1694L152.166 75.2242L138.234 52.2651L166.769 61.421L155.539 42.9147Z" fill="#1D1D1B"/>
<path d="M184.429 44.5098L183.613 42.7703L194.008 37.8905C194.75 39.4738 195.216 41.1053 195.405 42.785C195.584 44.4424 195.455 46.0535 195.02 47.6183C194.584 49.1831 193.839 50.6079 192.782 51.8927C191.726 53.1776 190.34 54.2227 188.625 55.0282C186.953 55.8127 185.269 56.2498 183.571 56.3395C181.885 56.3964 180.256 56.1407 178.685 55.5723C177.136 54.9936 175.727 54.1042 174.458 52.9044C173.189 51.7045 172.146 50.2349 171.331 48.4954C170.516 46.756 170.053 45.0144 169.943 43.2706C169.832 41.5268 170.05 39.8738 170.595 38.3117C171.163 36.7392 172.013 35.3335 173.145 34.0947C174.289 32.8231 175.696 31.795 177.368 31.0105C178.816 30.3306 180.225 29.9141 181.594 29.7611C182.985 29.5976 184.327 29.6753 185.618 29.9942C186.899 30.2908 188.119 30.8062 189.279 31.5405L188.49 33.3389C187.104 32.4116 185.521 31.8761 183.741 31.7323C181.961 31.5885 180.124 31.9611 178.23 32.8503C176.403 33.7081 174.958 34.917 173.895 36.4771C172.832 38.0372 172.221 39.7795 172.063 41.7039C171.927 43.6178 172.329 45.5783 173.27 47.5854C174.2 49.5701 175.449 51.1331 177.017 52.2743C178.597 53.3828 180.315 54.0319 182.171 54.2217C184.049 54.401 185.913 54.0566 187.762 53.1884C189.077 52.5712 190.153 51.7938 190.992 50.8561C191.83 49.9185 192.445 48.8815 192.837 47.7454C193.251 46.5987 193.457 45.4138 193.454 44.1906C193.452 42.9674 193.24 41.761 192.818 40.5714L184.429 44.5098Z" fill="#1D1D1B"/>
<path d="M222.643 13.7979L224.509 13.2067L219.34 47.7873L217.475 48.3784L222.643 13.7979Z" fill="#1D1D1B"/>
<path d="M239.522 9.2491L241.418 8.76442L234.305 42.9974L232.409 43.4821L239.522 9.2491Z" fill="#1D1D1B"/>
<path d="M274.871 17.9508L274.644 16.0429L286.045 14.6844C286.251 16.421 286.18 18.1162 285.832 19.7702C285.48 21.3996 284.852 22.8884 283.947 24.2366C283.041 25.5848 281.885 26.7024 280.479 27.5894C279.072 28.4763 277.428 29.0319 275.546 29.2562C273.713 29.4746 271.977 29.359 270.337 28.9095C268.719 28.4326 267.254 27.677 265.941 26.6427C264.652 25.6055 263.594 24.3177 262.767 22.7791C261.94 21.2405 261.412 19.5173 261.185 17.6094C260.958 15.7016 261.067 13.9027 261.51 12.2127C261.953 10.5226 262.679 9.02216 263.688 7.71124C264.722 6.39741 265.971 5.33079 267.435 4.51137C268.92 3.66459 270.58 3.13198 272.412 2.91357C274.001 2.72427 275.469 2.77258 276.817 3.0585C278.189 3.3415 279.438 3.83765 280.563 4.54695C281.686 5.23179 282.682 6.10532 283.552 7.16754L282.238 8.62639C281.214 7.30968 279.88 6.30279 278.235 5.60573C276.591 4.90867 274.73 4.68391 272.653 4.93145C270.648 5.17026 268.897 5.86272 267.397 7.00884C265.898 8.15496 264.77 9.61643 264.015 11.3932C263.284 13.1671 263.05 15.1547 263.312 17.3561C263.571 19.533 264.265 21.4099 265.394 22.9869C266.545 24.5366 267.972 25.6937 269.674 26.4583C271.4 27.22 273.278 27.48 275.306 27.2383C276.748 27.0665 278.015 26.6675 279.105 26.0415C280.195 25.4154 281.105 24.6248 281.834 23.6697C282.588 22.7117 283.156 21.6518 283.538 20.49C283.92 19.3282 284.098 18.1163 284.072 16.8543L274.871 17.9508Z" fill="#1D1D1B"/>
<path d="M299.631 14.4714L301.882 14.4073L311.053 26.4918L308.544 26.5632L299.631 14.4714ZM294.856 1.07897L296.885 1.02117L297.62 26.8743L295.591 26.9321L294.856 1.07897ZM295.977 2.85822L295.926 1.04849L300.76 0.910814C302.433 0.863169 303.93 1.11624 305.251 1.67004C306.596 2.22313 307.666 3.04282 308.46 4.12909C309.254 5.21536 309.674 6.55871 309.719 8.15915C309.764 9.73496 309.421 11.1 308.691 12.2544C307.96 13.4087 306.939 14.3003 305.628 14.929C304.34 15.5325 302.859 15.858 301.186 15.9056L296.352 16.0433L296.301 14.2336L301.135 14.0959C302.439 14.0588 303.589 13.8166 304.586 13.3693C305.607 12.8966 306.388 12.2337 306.93 11.3804C307.471 10.5025 307.725 9.44805 307.69 8.21695C307.655 6.98585 307.33 5.96013 306.716 5.1398C306.126 4.31876 305.321 3.70101 304.299 3.28654C303.278 2.87207 302.115 2.6834 300.811 2.72054L295.977 2.85822Z" fill="#1D1D1B"/>
<path d="M318.909 17.8159L319.671 15.9314L331.58 16.5455L332.145 18.4985L318.909 17.8159ZM326.165 4.68618L320.522 16.6412L320.278 17.0726L315.918 26.356L313.632 26.2381L326.406 0L336.418 27.4132L334.132 27.2953L330.778 17.7621L330.618 17.2729L326.165 4.68618Z" fill="#1D1D1B"/>
<path d="M345.605 2.31269L347.618 2.5804L344.214 28.2186L342.201 27.9509L345.605 2.31269ZM346.487 4.36814L346.74 2.46358L351.607 3.11095C353.217 3.32512 354.604 3.82017 355.767 4.5961C356.955 5.37527 357.84 6.37513 358.423 7.59567C359.006 8.81622 359.192 10.2201 358.981 11.8072C358.773 13.3699 358.228 14.6764 357.343 15.7266C356.459 16.7769 355.342 17.5229 353.992 17.9646C352.67 18.3851 351.204 18.4883 349.594 18.2741L344.726 17.6268L344.979 15.7222L349.847 16.3696C351.725 16.6194 353.315 16.3339 354.616 15.513C355.916 14.692 356.688 13.3659 356.932 11.5346C357.178 9.67889 356.779 8.19701 355.734 7.08898C354.693 5.95653 353.233 5.26537 351.354 5.01551L346.487 4.36814Z" fill="#1D1D1B"/>
<path d="M366.487 18.0846L366.901 16.2085L383.916 19.9682L383.503 21.8443L366.487 18.0846ZM384.915 9.10228L386.933 9.54835L381.362 34.8038L379.343 34.3577L384.915 9.10228ZM368.187 5.40627L370.17 5.84438L364.599 31.0998L362.616 30.6617L368.187 5.40627Z" fill="#1D1D1B"/>
<path d="M397.622 12.4386L399.573 13.0029L392.397 37.8496L390.447 37.2854L397.622 12.4386Z" fill="#1D1D1B"/>
<path d="M403.06 27.3306C402.319 29.3935 402.105 31.3714 402.419 33.2643C402.733 35.1572 403.468 36.8224 404.626 38.2598C405.783 39.6973 407.277 40.7453 409.106 41.4038C410.264 41.8206 411.364 42.0724 412.405 42.1592C413.446 42.246 414.441 42.172 415.388 41.9371C416.359 41.7106 417.27 41.358 418.122 40.8794L417.198 43.4522C415.854 43.9894 414.497 44.2731 413.126 44.3032C411.763 44.3101 410.19 43.9927 408.407 43.3508C406.716 42.7423 405.249 41.8742 404.007 40.7464C402.796 39.6037 401.858 38.2844 401.192 36.7884C400.526 35.2924 400.167 33.6711 400.115 31.9246C400.063 30.178 400.361 28.4008 401.011 26.5929C401.66 24.7849 402.561 23.2244 403.713 21.9114C404.865 20.5983 406.174 19.5772 407.639 18.8481C409.104 18.1189 410.663 17.7114 412.315 17.6256C413.999 17.5249 415.686 17.7788 417.377 18.3874C419.16 19.0292 420.571 19.7986 421.609 20.6957C422.655 21.5695 423.525 22.6418 424.219 23.9126L423.307 26.4506C422.955 25.5385 422.472 24.6974 421.86 23.9272C421.256 23.1339 420.525 22.4389 419.667 21.8421C418.809 21.2454 417.812 20.7428 416.677 20.3344C414.848 19.6758 413.029 19.5318 411.222 19.9023C409.424 20.2496 407.801 21.053 406.355 22.3124C404.908 23.5718 403.81 25.2445 403.06 27.3306Z" fill="#1D1D1B"/>
<path d="M446.912 30.7767L448.711 31.7195L436.722 54.6315L434.923 53.6888L446.912 30.7767ZM441.137 56.9455L435.904 54.203L436.846 52.4028L442.079 55.1453C443.497 55.8881 444.903 56.3331 446.298 56.4805C447.715 56.6394 449.055 56.5213 450.318 56.1263C451.591 55.7095 452.755 55.0263 453.807 54.0765C454.893 53.1163 455.819 51.9052 456.584 50.4432C457.349 48.9812 457.81 47.541 457.969 46.1227C458.161 44.694 458.06 43.3479 457.665 42.0845C457.282 40.7993 456.621 39.619 455.684 38.5437C454.768 37.4798 453.601 36.5765 452.184 35.8337L446.951 33.0912L447.893 31.2909L453.126 34.0335C455.35 35.199 457.05 36.7018 458.227 38.5418C459.425 40.3933 460.042 42.4266 460.078 44.6419C460.146 46.8467 459.581 49.0947 458.382 51.3859C457.183 53.6771 455.653 55.4333 453.792 56.6543C451.964 57.865 449.948 58.5047 447.745 58.5735C445.564 58.6538 443.361 58.1111 441.137 56.9455Z" fill="#1D1D1B"/>
<path d="M459.54 67.0014L460.57 65.38L471.38 72.2593L470.35 73.8806L459.54 67.0014ZM472.376 46.7974L473.406 45.1761L484.217 52.0553L483.187 53.6766L472.376 46.7974ZM466.632 55.8393L467.662 54.218L477.849 60.7007L476.819 62.322L466.632 55.8393ZM472.503 44.6011L474.216 45.6915L460.35 67.5168L458.636 66.4264L472.503 44.6011Z" fill="#1D1D1B"/>
<path d="M481.301 72.2149C480.989 73.3341 480.806 74.4259 480.75 75.4902C480.714 76.5692 480.89 77.5909 481.277 78.5553C481.678 79.4999 482.373 80.3401 483.359 81.076C484.701 82.0767 486.019 82.4914 487.313 82.3198C488.642 82.1432 489.733 81.4821 490.586 80.3365C491.336 79.3291 491.712 78.35 491.713 77.3992C491.715 76.4484 491.491 75.5131 491.04 74.5933C490.624 73.6684 490.131 72.7635 489.562 71.8785C489.132 71.2198 488.701 70.4994 488.271 69.7174C487.874 68.9304 487.562 68.1136 487.333 67.267C487.118 66.4006 487.069 65.519 487.184 64.622C487.319 63.7397 487.718 62.8542 488.379 61.9654C489.115 60.9778 489.998 60.2853 491.031 59.8879C492.078 59.4708 493.18 59.3713 494.338 59.5893C495.51 59.7876 496.629 60.2842 497.695 61.0789C498.8 61.9031 499.593 62.8169 500.074 63.8204C500.574 64.8386 500.855 65.8624 500.918 66.8918C500.98 67.9212 500.899 68.8747 500.676 69.7523L498.659 69.4927C498.839 68.7975 498.913 68.0386 498.881 67.2159C498.868 66.4081 498.681 65.6081 498.319 64.8161C497.972 64.0043 497.345 63.2599 496.437 62.5829C495.233 61.6852 494.07 61.3095 492.948 61.4559C491.841 61.5825 490.942 62.11 490.251 63.0384C489.677 63.8087 489.372 64.6102 489.335 65.4429C489.299 66.2756 489.486 67.1987 489.898 68.2122C490.324 69.206 490.943 70.3125 491.754 71.5317C492.165 72.1758 492.558 72.884 492.935 73.6562C493.311 74.4285 493.57 75.2356 493.71 76.0776C493.871 76.9343 493.859 77.8162 493.674 78.7232C493.505 79.6105 493.082 80.5084 492.405 81.417C491.773 82.2664 491.042 82.9189 490.211 83.3748C489.4 83.8453 488.528 84.1314 487.593 84.2328C486.692 84.3293 485.774 84.2435 484.838 83.9755C483.916 83.6877 483.031 83.2274 482.183 82.5945C480.979 81.6968 480.107 80.6625 479.566 79.4917C479.026 78.3209 478.759 77.0926 478.765 75.8068C478.771 74.521 478.966 73.2691 479.351 72.051L481.301 72.2149Z" fill="#1D1D1B"/>
<path d="M510.403 71.3775L511.966 72.6748L495.469 92.5829L493.906 91.2856L510.403 71.3775Z" fill="#1D1D1B"/>
<path d="M516.29 96.357L517.615 94.9661L525.927 102.893C524.721 104.159 523.371 105.185 521.875 105.97C520.396 106.738 518.849 107.202 517.234 107.363C515.619 107.524 514.022 107.344 512.443 106.825C510.863 106.305 509.388 105.392 508.016 104.083C506.68 102.809 505.662 101.396 504.963 99.8446C504.299 98.2926 503.947 96.6808 503.907 95.0092C503.884 93.3546 504.202 91.7179 504.859 90.0992C505.516 88.4805 506.507 86.9757 507.832 85.5848C509.156 84.1939 510.61 83.1309 512.194 82.3958C513.778 81.6607 515.396 81.2645 517.049 81.2073C518.719 81.167 520.336 81.4504 521.9 82.0573C523.499 82.6634 524.966 83.6036 526.303 84.8781C527.461 85.9827 528.359 87.1457 528.998 88.3673C529.654 89.6059 530.068 90.8852 530.239 92.2052C530.427 93.5074 530.389 94.8324 530.126 96.1803L528.165 96.0969C528.527 94.4679 528.452 92.7971 527.94 91.0846C527.429 89.3721 526.416 87.7936 524.902 86.3492C523.441 84.9558 521.791 84.0461 519.953 83.62C518.115 83.1939 516.271 83.2558 514.422 83.8056C512.59 84.3724 510.91 85.4583 509.382 87.0632C507.871 88.6502 506.868 90.3818 506.373 92.2579C505.914 94.1332 505.932 95.9709 506.428 97.7708C506.941 99.5878 507.938 101.202 509.417 102.612C510.468 103.615 511.582 104.337 512.759 104.779C513.936 105.221 515.125 105.419 516.325 105.372C517.542 105.343 518.721 105.106 519.859 104.66C520.997 104.214 522.044 103.579 522.999 102.755L516.29 96.357Z" fill="#1D1D1B"/>
<path d="M554.789 115.81L556.101 117.36L535.626 134.727L540.136 105.135L523.688 119.086L522.375 117.536L542.851 100.169L538.284 129.808L554.789 115.81Z" fill="#1D1D1B"/>
<path d="M577.763 147.964L578.824 149.609L544.132 153.738L543.07 152.093L577.763 147.964Z" fill="#1D1D1B"/>
<path d="M586.613 163.07L587.581 164.772L552.712 166.951L551.744 165.249L586.613 163.07Z" fill="#1D1D1B"/>
<path d="M596.644 182.643L597.43 184.517L581.295 191.295C579.388 192.096 578.077 193.234 577.362 194.71C576.646 196.186 576.674 197.844 577.446 199.684C578.217 201.523 579.38 202.705 580.934 203.227C582.488 203.75 584.218 203.611 586.124 202.81L602.26 196.032L603.046 197.906L586.91 204.684C585.73 205.18 584.569 205.467 583.428 205.546C582.309 205.615 581.26 205.468 580.28 205.105C579.3 204.742 578.406 204.169 577.598 203.387C576.821 202.617 576.181 201.631 575.676 200.427C575.171 199.223 574.911 198.064 574.897 196.948C574.915 195.845 575.138 194.816 575.565 193.862C575.992 192.908 576.622 192.056 577.455 191.305C578.311 190.545 579.329 189.917 580.509 189.421L596.644 182.643Z" fill="#1D1D1B"/>
<path d="M610.8 219.89L611.559 222.207L597.496 218.775L587.176 230.795L586.417 228.478L595.455 218.356L582.125 215.382L581.365 213.065L596.852 216.809L606.209 205.882L606.968 208.199L598.869 217.274L610.8 219.89Z" fill="#1D1D1B"/>
<path d="M607.143 248.937C607.528 248.462 607.947 247.905 608.401 247.266C608.884 246.647 609.451 246.074 610.102 245.548C610.758 245.046 611.533 244.709 612.427 244.537C613.467 244.338 614.432 244.404 615.322 244.735C616.212 245.065 616.97 245.622 617.596 246.405C618.227 247.212 618.658 248.22 618.89 249.43C619.126 250.664 619.057 251.743 618.683 252.667C618.338 253.611 617.796 254.38 617.057 254.973C616.319 255.566 615.49 255.951 614.572 256.127C613.967 256.243 613.352 256.236 612.725 256.105C612.123 255.97 611.5 255.726 610.856 255.373C610.241 255.039 609.617 254.595 608.984 254.039C608.352 253.483 607.7 252.83 607.03 252.081C606.519 251.502 605.966 250.843 605.374 250.104C604.81 249.384 604.19 248.701 603.515 248.053C602.844 247.429 602.088 246.947 601.246 246.607C600.428 246.262 599.487 246.192 598.424 246.396C597.336 246.605 596.444 247.052 595.748 247.737C595.077 248.417 594.621 249.245 594.382 250.219C594.147 251.217 594.136 252.272 594.349 253.385C594.599 254.691 595.123 255.857 595.921 256.883C596.743 257.904 597.733 258.818 598.89 259.624C600.046 260.431 601.305 261.18 602.666 261.872C604.026 262.564 605.406 263.227 606.806 263.862L606.184 265.523C604.742 264.797 603.275 264.075 601.785 263.358C600.318 262.636 598.947 261.82 597.67 260.912C596.398 260.027 595.311 258.994 594.408 257.813C593.505 256.632 592.898 255.231 592.588 253.61C592.324 252.231 592.342 250.886 592.642 249.574C592.971 248.282 593.571 247.164 594.443 246.219C595.343 245.294 596.506 244.695 597.933 244.421C598.996 244.217 599.962 244.22 600.829 244.43C601.701 244.664 602.494 245.013 603.21 245.478C603.93 245.967 604.575 246.52 605.144 247.138C605.714 247.756 606.22 248.374 606.664 248.991C607.132 249.604 607.546 250.126 607.904 250.559C609.028 251.848 610.116 252.818 611.168 253.469C612.249 254.14 613.261 254.385 614.203 254.204C614.856 254.079 615.432 253.818 615.933 253.421C616.438 253.048 616.806 252.551 617.038 251.93C617.299 251.328 617.348 250.604 617.186 249.757C616.94 248.475 616.402 247.562 615.571 247.019C614.765 246.472 613.842 246.298 612.803 246.497C611.811 246.687 610.985 247.147 610.322 247.876C609.689 248.624 609.06 249.397 608.436 250.194L595.48 266.749L595.049 264.499L607.143 248.937Z" fill="#1D1D1B"/>
<path d="M623.855 284.471L623.972 286.5L606.501 287.508C604.437 287.627 602.822 288.263 601.656 289.416C600.49 290.569 599.964 292.141 600.079 294.133C600.194 296.125 600.896 297.626 602.187 298.638C603.478 299.649 605.156 300.095 607.22 299.976L624.69 298.967L624.807 300.996L607.337 302.004C606.059 302.078 604.869 301.962 603.766 301.655C602.689 301.347 601.748 300.859 600.946 300.19C600.143 299.52 599.49 298.682 598.989 297.675C598.513 296.691 598.237 295.547 598.162 294.244C598.087 292.94 598.229 291.76 598.587 290.703C598.971 289.669 599.524 288.774 600.244 288.017C600.965 287.26 601.843 286.666 602.878 286.237C603.938 285.805 605.107 285.553 606.384 285.479L623.855 284.471Z" fill="#1D1D1B"/>
<path d="M624.967 311.182L625 313.214L599.161 313.634L599.128 311.602L624.967 311.182Z" fill="#1D1D1B"/>
<path d="M624.55 333.943L624.343 335.964L598.635 333.333L598.841 331.311L624.55 333.943ZM598.127 338.295L598.728 332.414L600.748 332.621L600.147 338.501C599.985 340.094 600.094 341.566 600.475 342.918C600.854 344.294 601.461 345.495 602.297 346.521C603.156 347.55 604.222 348.377 605.494 349.003C606.788 349.655 608.256 350.065 609.896 350.233C611.537 350.401 613.044 350.295 614.419 349.916C615.816 349.564 617.027 348.97 618.052 348.134C619.102 347.301 619.952 346.248 620.602 344.978C621.249 343.732 621.653 342.312 621.816 340.72L622.417 334.839L624.437 335.045L623.836 340.926C623.581 343.426 622.818 345.564 621.548 347.34C620.275 349.141 618.618 350.47 616.576 351.325C614.556 352.208 612.26 352.518 609.69 352.255C607.119 351.992 604.921 351.222 603.097 349.946C601.295 348.697 599.953 347.061 599.071 345.04C598.186 343.042 597.872 340.794 598.127 338.295Z" fill="#1D1D1B"/>
<path d="M595.641 359.132L597.528 359.487L595.161 372.087L593.274 371.732L595.641 359.132ZM619.152 363.556L621.039 363.911L618.672 376.512L616.785 376.157L619.152 363.556ZM608.631 361.576L610.517 361.931L608.286 373.805L606.4 373.45L608.631 361.576ZM621.237 362.858L620.862 364.856L595.464 360.076L595.839 358.079L621.237 362.858Z" fill="#1D1D1B"/>
<path d="M598.886 381.278C597.732 381.404 596.65 381.638 595.642 381.981C594.628 382.348 593.745 382.89 592.993 383.607C592.266 384.331 591.743 385.287 591.427 386.478C590.996 388.096 591.1 389.475 591.739 390.614C592.396 391.783 593.414 392.552 594.793 392.92C596.006 393.243 597.054 393.229 597.937 392.879C598.82 392.528 599.605 391.972 600.291 391.212C600.995 390.482 601.652 389.689 602.262 388.832C602.713 388.187 603.222 387.52 603.788 386.83C604.371 386.17 605.013 385.576 605.714 385.049C606.439 384.529 607.238 384.155 608.113 383.93C608.982 383.728 609.952 383.77 611.022 384.056C612.211 384.373 613.181 384.937 613.933 385.75C614.708 386.568 615.21 387.556 615.437 388.712C615.687 389.875 615.642 391.1 615.299 392.385C614.945 393.718 614.391 394.794 613.638 395.612C612.878 396.455 612.033 397.096 611.101 397.536C610.169 397.976 609.254 398.254 608.356 398.372L607.85 396.401C608.561 396.311 609.293 396.098 610.044 395.763C610.789 395.452 611.462 394.981 612.063 394.351C612.688 393.728 613.146 392.868 613.437 391.774C613.824 390.322 613.741 389.101 613.189 388.113C612.661 387.131 611.838 386.491 610.72 386.193C609.793 385.946 608.936 385.959 608.15 386.234C607.363 386.508 606.576 387.025 605.788 387.784C605.024 388.549 604.227 389.534 603.397 390.74C602.951 391.361 602.44 391.989 601.863 392.625C601.286 393.262 600.633 393.801 599.904 394.244C599.168 394.711 598.345 395.027 597.435 395.192C596.549 395.364 595.559 395.303 594.465 395.012C593.443 394.739 592.566 394.301 591.835 393.698C591.097 393.12 590.508 392.414 590.067 391.583C589.644 390.782 589.383 389.896 589.284 388.927C589.21 387.964 589.309 386.971 589.581 385.947C589.968 384.495 590.604 383.301 591.49 382.365C592.376 381.429 593.417 380.725 594.612 380.253C595.807 379.782 597.042 379.499 598.315 379.405L598.886 381.278Z" fill="#1D1D1B"/>
<path d="M610.452 408.001L609.826 409.934L585.239 401.972L585.864 400.038L610.452 408.001Z" fill="#1D1D1B"/>
<path d="M589.456 422.698L591.237 423.416L586.947 434.075C585.326 433.421 583.875 432.544 582.593 431.443C581.334 430.352 580.332 429.084 579.586 427.642C578.84 426.199 578.416 424.648 578.315 422.987C578.214 421.326 578.517 419.616 579.225 417.857C579.915 416.143 580.851 414.675 582.033 413.452C583.229 412.261 584.595 411.338 586.133 410.683C587.661 410.051 589.298 409.742 591.044 409.755C592.789 409.769 594.553 410.134 596.333 410.852C598.114 411.57 599.638 412.53 600.906 413.731C602.174 414.933 603.139 416.291 603.803 417.807C604.457 419.345 604.792 420.954 604.806 422.632C604.834 424.343 604.503 426.055 603.813 427.769C603.215 429.254 602.467 430.519 601.569 431.565C600.661 432.633 599.626 433.49 598.464 434.137C597.324 434.793 596.08 435.247 594.731 435.5L594.084 433.646C595.73 433.38 597.254 432.693 598.655 431.585C600.057 430.477 601.148 428.952 601.93 427.01C602.684 425.136 602.919 423.266 602.636 421.399C602.352 419.532 601.614 417.84 600.42 416.323C599.217 414.829 597.588 413.668 595.533 412.84C593.501 412.021 591.523 411.728 589.598 411.961C587.687 412.226 585.988 412.922 584.5 414.048C583.002 415.197 581.872 416.72 581.109 418.616C580.566 419.964 580.307 421.267 580.332 422.525C580.356 423.783 580.611 424.962 581.098 426.061C581.575 427.182 582.231 428.19 583.065 429.084C583.899 429.978 584.875 430.717 585.994 431.301L589.456 422.698Z" fill="#1D1D1B"/>
<path d="M585.59 465.657L584.634 467.449L560.958 454.797L590.107 448.091L571.088 437.928L572.044 436.135L595.72 448.787L566.506 455.459L585.59 465.657Z" fill="#1D1D1B"/>
<path d="M564.174 498.888L563.037 500.481L546.434 469.716L547.572 468.123L564.174 498.888Z" fill="#1D1D1B"/>
<path d="M553.409 512.671L552.185 514.198L537.319 482.556L538.544 481.028L553.409 512.671Z" fill="#1D1D1B"/>
<path d="M529.347 520.584C527.822 519.01 526.141 517.948 524.304 517.398C522.467 516.847 520.65 516.776 518.851 517.184C517.052 517.592 515.454 518.474 514.059 519.829C513.176 520.686 512.466 521.564 511.93 522.462C511.394 523.359 511.024 524.286 510.818 525.241C510.594 526.213 510.51 527.187 510.564 528.163L508.662 526.201C508.771 524.757 509.114 523.412 509.689 522.166C510.282 520.939 511.259 519.664 512.619 518.344C513.909 517.092 515.333 516.155 516.891 515.534C518.449 514.948 520.046 514.685 521.681 514.745C523.316 514.805 524.929 515.195 526.52 515.916C528.11 516.637 529.574 517.687 530.91 519.066C532.247 520.445 533.251 521.941 533.923 523.554C534.595 525.166 534.936 526.792 534.946 528.429C534.955 530.067 534.636 531.647 533.986 533.17C533.336 534.728 532.366 536.133 531.076 537.385C529.716 538.706 528.405 539.635 527.144 540.173C525.899 540.729 524.555 541.04 523.109 541.105L521.232 539.169C522.206 539.253 523.173 539.19 524.133 538.978C525.111 538.784 526.056 538.432 526.969 537.924C527.882 537.415 528.771 536.74 529.637 535.9C531.032 534.545 531.961 532.974 532.423 531.187C532.903 529.417 532.895 527.606 532.401 525.752C531.907 523.898 530.889 522.175 529.347 520.584Z" fill="#1D1D1B"/>
<path d="M508.675 540.413C507.349 538.731 505.803 537.504 504.036 536.734C502.25 535.979 500.425 535.71 498.559 535.928C496.689 536.181 494.942 536.947 493.319 538.229C491.696 539.51 490.553 541.023 489.891 542.769C489.225 544.55 489.061 546.389 489.397 548.288C489.734 550.187 490.565 551.978 491.891 553.66C493.232 555.363 494.778 556.589 496.53 557.34C498.296 558.11 500.115 558.369 501.985 558.117C503.85 557.899 505.595 557.149 507.218 555.868C508.842 554.587 509.986 553.056 510.652 551.276C511.314 549.53 511.486 547.7 511.169 545.786C510.848 543.906 510.016 542.115 508.675 540.413ZM510.357 539.086C511.53 540.576 512.361 542.147 512.849 543.801C513.353 545.474 513.516 547.133 513.339 548.778C513.178 550.443 512.694 552.017 511.888 553.5C511.063 554.998 509.925 556.32 508.476 557.464C507.026 558.608 505.487 559.399 503.858 559.838C502.21 560.292 500.558 560.403 498.903 560.172C497.263 559.961 495.689 559.415 494.181 558.535C492.687 557.675 491.354 556.5 490.181 555.01C489.007 553.521 488.169 551.94 487.665 550.267C487.177 548.613 487.014 546.954 487.175 545.289C487.352 543.644 487.853 542.072 488.678 540.574C489.484 539.091 490.612 537.777 492.062 536.633C493.511 535.489 495.06 534.69 496.708 534.236C498.337 533.797 499.972 533.684 501.612 533.895C503.267 534.126 504.841 534.672 506.334 535.532C507.842 536.412 509.183 537.597 510.357 539.086Z" fill="#1D1D1B"/>
<path d="M484.733 568.202L475.825 549.643L477.55 548.571L489.169 572.969L469.909 561.54L471.606 583.884L454.906 562.644L456.631 561.572L469.303 577.792L467.806 558.15L484.733 568.202Z" fill="#1D1D1B"/>
<path d="M454.484 586.284L447.763 566.825L449.6 565.958L458.344 591.53L440.522 577.964L439.645 600.356L425.491 577.338L427.328 576.471L438.056 594.039L438.821 574.355L454.484 586.284Z" fill="#1D1D1B"/>
<path d="M426.849 604.74L424.935 605.418L419.096 588.908C418.407 586.958 417.346 585.583 415.915 584.784C414.483 583.984 412.828 583.917 410.948 584.583C409.069 585.249 407.824 586.343 407.214 587.865C406.603 589.388 406.643 591.125 407.333 593.075L413.172 609.585L411.257 610.263L405.419 593.753C404.992 592.546 404.772 591.369 404.758 590.224C404.753 589.103 404.96 588.063 405.378 587.105C405.797 586.146 406.419 585.286 407.246 584.523C408.057 583.791 409.078 583.207 410.308 582.772C411.537 582.336 412.709 582.143 413.823 582.193C414.923 582.274 415.936 582.555 416.863 583.037C417.791 583.518 418.605 584.196 419.306 585.072C420.015 585.97 420.584 587.023 421.011 588.23L426.849 604.74Z" fill="#1D1D1B"/>
<path d="M382.603 618.299L380.633 618.79L374.149 592.724L398.657 609.882L393.448 588.944L395.419 588.453L401.903 614.518L377.376 597.289L382.603 618.299Z" fill="#1D1D1B"/>
<path d="M369.266 621L367.266 621.355L362.757 595.888L364.756 595.533L369.266 621Z" fill="#1D1D1B"/>
<path d="M357.834 610.025C357.59 607.847 356.909 605.977 355.793 604.417C354.677 602.857 353.282 601.688 351.61 600.909C349.937 600.131 348.135 599.85 346.203 600.067C344.98 600.205 343.882 600.464 342.91 600.846C341.937 601.228 341.078 601.734 340.331 602.363C339.56 602.995 338.897 603.714 338.344 604.52L338.039 601.803C339.008 600.727 340.101 599.873 341.318 599.241C342.537 598.633 344.089 598.223 345.972 598.011C347.758 597.81 349.456 597.942 351.069 598.405C352.659 598.895 354.083 599.665 355.34 600.713C356.597 601.761 357.634 603.058 358.452 604.602C359.269 606.146 359.785 607.872 359.999 609.782C360.213 611.691 360.093 613.489 359.639 615.176C359.184 616.863 358.46 618.358 357.467 619.659C356.474 620.96 355.255 622.015 353.81 622.822C352.343 623.656 350.717 624.173 348.931 624.374C347.048 624.586 345.443 624.518 344.116 624.172C342.792 623.85 341.539 623.272 340.355 622.438L340.054 619.758C340.773 620.421 341.577 620.962 342.466 621.383C343.358 621.828 344.32 622.129 345.353 622.285C346.386 622.442 347.502 622.452 348.701 622.318C350.633 622.1 352.328 621.427 353.786 620.296C355.247 619.19 356.349 617.752 357.091 615.983C357.834 614.214 358.082 612.228 357.834 610.025Z" fill="#1D1D1B"/>
<path d="M328.262 608.68L327.64 610.616L315.718 610.88L315.011 608.974L328.262 608.68ZM321.99 622.309L326.739 609.971L326.951 609.522L330.616 599.943L332.905 599.892L322.094 627L310.095 600.398L312.383 600.348L316.429 609.608L316.624 610.084L321.99 622.309Z" fill="#1D1D1B"/>
<path d="M308.497 624.337L308.415 626.257L292.813 625.583L292.895 623.664L299.682 623.957L300.713 600.037L302.742 600.124L301.711 624.044L308.497 624.337Z" fill="#1D1D1B"/>
<path d="M286.057 625.037L284.034 624.855L286.35 599.096L288.372 599.278L286.057 625.037Z" fill="#1D1D1B"/>
<path d="M278.059 611.563C278.4 609.448 278.256 607.478 277.627 605.655C276.974 603.828 275.936 602.301 274.513 601.073C273.063 599.866 271.317 599.098 269.276 598.769C267.234 598.439 265.348 598.621 263.616 599.315C261.855 600.029 260.39 601.152 259.221 602.685C258.052 604.218 257.296 606.042 256.956 608.158C256.611 610.298 256.755 612.267 257.387 614.066C258.016 615.889 259.056 617.404 260.507 618.611C261.929 619.839 263.661 620.617 265.702 620.946C267.743 621.276 269.644 621.084 271.404 620.37C273.137 619.676 274.6 618.565 275.793 617.036C276.959 615.527 277.714 613.703 278.059 611.563ZM280.173 611.904C279.871 613.777 279.277 615.452 278.39 616.931C277.5 618.434 276.39 619.677 275.06 620.66C273.726 621.667 272.24 622.376 270.604 622.785C268.943 623.191 267.201 623.247 265.379 622.953C263.557 622.659 261.933 622.06 260.508 621.156C259.059 620.249 257.859 619.107 256.909 617.731C255.955 616.379 255.291 614.85 254.918 613.143C254.541 611.461 254.503 609.683 254.805 607.811C255.107 605.938 255.703 604.25 256.593 602.747C257.48 601.269 258.59 600.026 259.924 599.018C261.254 598.035 262.749 597.341 264.41 596.935C266.047 596.526 267.776 596.468 269.599 596.762C271.421 597.056 273.057 597.657 274.506 598.565C275.931 599.468 277.121 600.596 278.075 601.948C279.025 603.323 279.688 604.853 280.065 606.535C280.439 608.242 280.474 610.032 280.173 611.904Z" fill="#1D1D1B"/>
<path d="M223.815 613.412L221.857 612.873L228.976 586.974L241.93 613.954L247.649 593.149L249.606 593.688L242.488 619.587L229.553 592.536L223.815 613.412Z" fill="#1D1D1B"/>
<path d="M186.752 599.813L184.949 599.051L211.299 576.093L213.102 576.854L186.752 599.813Z" fill="#1D1D1B"/>
<path d="M170.936 592.308L169.179 591.446L196.781 570.009L198.538 570.871L170.936 592.308Z" fill="#1D1D1B"/>
<path d="M157.997 570.553C159.199 568.72 159.869 566.847 160.005 564.933C160.142 563.019 159.815 561.228 159.025 559.56C158.235 557.892 157.027 556.524 155.401 555.456C154.372 554.78 153.362 554.279 152.37 553.951C151.378 553.623 150.393 553.463 149.417 553.47C148.421 553.464 147.452 553.593 146.512 553.86L148.011 551.574C149.443 551.366 150.829 551.407 152.169 551.698C153.496 552.01 154.951 552.686 156.536 553.726C158.038 554.713 159.261 555.9 160.206 557.287C161.117 558.681 161.722 560.183 162.02 561.793C162.319 563.403 162.289 565.064 161.933 566.774C161.577 568.485 160.872 570.143 159.818 571.749C158.765 573.356 157.525 574.662 156.099 575.67C154.672 576.678 153.162 577.365 151.567 577.732C149.972 578.098 148.362 578.13 146.735 577.828C145.074 577.532 143.492 576.891 141.99 575.904C140.406 574.864 139.214 573.786 138.414 572.671C137.601 571.577 137.005 570.331 136.626 568.933L138.105 566.678C138.235 567.648 138.508 568.578 138.924 569.47C139.326 570.383 139.875 571.23 140.57 572.01C141.265 572.791 142.117 573.512 143.125 574.175C144.75 575.242 146.485 575.807 148.328 575.869C150.158 575.952 151.924 575.55 153.624 574.663C155.324 573.776 156.782 572.406 157.997 570.553Z" fill="#1D1D1B"/>
<path d="M134.158 554.682C135.511 553.021 136.371 551.243 136.737 549.35C137.085 547.441 136.949 545.599 136.331 543.824C135.678 542.052 134.55 540.513 132.947 539.206C131.344 537.899 129.619 537.112 127.773 536.846C125.892 536.583 124.062 536.823 122.283 537.565C120.504 538.307 118.939 539.508 117.586 541.17C116.218 542.85 115.359 544.627 115.008 546.502C114.641 548.395 114.784 550.228 115.437 551.999C116.056 553.774 117.166 555.315 118.769 556.622C120.372 557.929 122.114 558.714 123.995 558.977C125.842 559.243 127.664 559.013 129.462 558.287C131.225 557.564 132.79 556.362 134.158 554.682ZM135.819 556.035C134.622 557.506 133.27 558.659 131.763 559.496C130.241 560.352 128.658 560.873 127.015 561.058C125.357 561.263 123.717 561.133 122.095 560.668C120.454 560.188 118.918 559.365 117.487 558.198C116.056 557.031 114.949 555.699 114.167 554.204C113.365 552.692 112.897 551.103 112.762 549.436C112.611 547.788 112.801 546.132 113.331 544.467C113.845 542.821 114.701 541.263 115.898 539.793C117.095 538.322 118.454 537.159 119.976 536.303C121.483 535.467 123.066 534.946 124.724 534.741C126.367 534.556 128.009 534.703 129.65 535.183C131.272 535.648 132.798 536.464 134.229 537.631C135.661 538.797 136.777 540.137 137.578 541.648C138.361 543.144 138.827 544.715 138.978 546.363C139.113 548.03 138.923 549.687 138.409 551.332C137.879 552.997 137.016 554.565 135.819 556.035Z" fill="#1D1D1B"/>
<path d="M86.2526 529.169L84.8246 527.724L103.906 508.833L101.682 538.684L117.01 523.509L118.438 524.954L99.3566 543.844L101.633 513.942L86.2526 529.169Z" fill="#1D1D1B"/>
<path d="M80.2011 519.888L78.7277 521.12L68.7168 509.125L70.1902 507.893L74.5449 513.111L92.9059 497.763L94.2075 499.322L75.8465 514.67L80.2011 519.888Z" fill="#1D1D1B"/>
<path d="M84.8201 487.844L83.2656 488.971L75.7483 478.59L77.3028 477.462L84.8201 487.844ZM65.4487 501.893L63.8942 503.02L56.377 492.639L57.9315 491.511L65.4487 501.893ZM74.118 495.605L72.5635 496.733L65.4795 486.95L67.034 485.822L74.118 495.605ZM64.5225 503.888L63.331 502.242L84.2568 487.066L85.4483 488.711L64.5225 503.888Z" fill="#1D1D1B"/>
<path d="M40.8209 468.073L39.7827 466.327L62.8489 452.593L53.5052 481.028L72.0343 469.996L73.0725 471.742L50.0063 485.476L59.4134 457.003L40.8209 468.073Z" fill="#1D1D1B"/>
<path d="M37.1763 457.611L35.4494 458.45L28.6281 444.391L30.355 443.552L33.3222 449.667L54.8424 439.209L55.7293 441.037L34.2091 451.495L37.1763 457.611Z" fill="#1D1D1B"/>
<path d="M32.7443 421.384C34.8169 420.674 36.4937 419.606 37.7746 418.178C39.0556 416.751 39.8953 415.136 40.2939 413.333C40.6924 411.531 40.5771 409.709 39.9479 407.868C39.5497 406.702 39.0592 405.686 38.4765 404.818C37.8938 403.95 37.2149 403.219 36.4397 402.625C35.6566 402.008 34.8122 401.516 33.9065 401.149L36.4915 400.265C37.7501 400.979 38.8194 401.863 39.6993 402.915C40.5559 403.976 41.2908 405.403 41.9041 407.198C42.4855 408.899 42.7243 410.588 42.6205 412.263C42.4855 413.924 42.0423 415.481 41.2908 416.936C40.5394 418.391 39.4987 419.684 38.1687 420.816C36.8388 421.948 35.2656 422.825 33.4491 423.447C31.6326 424.068 29.8524 424.339 28.1083 424.259C26.3642 424.179 24.7501 423.795 23.2659 423.105C21.7817 422.416 20.49 421.452 19.3907 420.214C18.2602 418.961 17.4042 417.484 16.8228 415.782C16.2096 413.988 15.9288 412.405 15.9804 411.033C16.0087 409.67 16.3018 408.32 16.8596 406.984L19.4097 406.111C18.9181 406.956 18.5632 407.859 18.3449 408.818C18.1033 409.786 18.0178 410.792 18.0881 411.835C18.1585 412.878 18.3888 413.971 18.779 415.113C19.4082 416.954 20.4318 418.465 21.8497 419.646C23.2444 420.835 24.8848 421.601 26.771 421.944C28.6573 422.288 30.6483 422.101 32.7443 421.384Z" fill="#1D1D1B"/>
<path d="M23.4399 390.076L22.8955 387.889L32.7274 376.337L33.3343 378.775L23.4399 390.076ZM11.3907 397.612L10.8998 395.64L35.9761 389.388L36.467 391.359L11.3907 397.612ZM12.8872 396.135L11.1318 396.572L9.96265 391.876C9.55805 390.25 9.48465 388.733 9.74247 387.323C9.99434 385.89 10.5654 384.668 11.4556 383.659C12.3459 382.651 13.5672 381.953 15.1195 381.565C16.648 381.184 18.0537 381.227 19.3368 381.694C20.6198 382.161 21.7086 382.969 22.603 384.116C23.4677 385.246 24.1023 386.624 24.5069 388.249L25.6761 392.946L23.9208 393.383L22.7516 388.687C22.4362 387.42 21.9536 386.347 21.3036 385.469C20.6238 384.572 19.8095 383.95 18.8607 383.603C17.8879 383.261 16.8045 383.24 15.6104 383.537C14.4163 383.835 13.4847 384.372 12.8155 385.148C12.1403 385.9 11.7098 386.82 11.5239 387.907C11.3379 388.994 11.4026 390.171 11.718 391.438L12.8872 396.135Z" fill="#1D1D1B"/>
<path d="M31.3428 369.888L29.4506 370.213L27.2878 357.576L29.1799 357.251L31.3428 369.888ZM7.76314 373.931L5.87094 374.255L3.70807 361.618L5.60027 361.294L7.76314 373.931ZM18.3158 372.121L16.4236 372.446L14.3854 360.537L16.2776 360.213L18.3158 372.121ZM6.0517 375.311L5.70888 373.308L31.1808 368.941L31.5236 370.944L6.0517 375.311Z" fill="#1D1D1B"/>
<path d="M19.1557 348.664L17.1852 348.17L16.1417 336.281L17.996 335.451L19.1557 348.664ZM5.15718 343.293L17.7696 347.228L18.2303 347.41L28.0212 350.444L28.2215 352.726L0.486535 343.703L26.225 329.98L26.4253 332.261L17.4568 336.907L16.9948 337.133L5.15718 343.293Z" fill="#1D1D1B"/>
<path d="M2.26269 329.958L0.343396 330L0 314.375L1.91929 314.333L2.06867 321.129L25.986 320.603L26.0306 322.634L2.11332 323.161L2.26269 329.958Z" fill="#1D1D1B"/>
<path d="M0.105418 307.602L0.154319 305.57L25.9897 306.193L25.9408 308.225L0.105418 307.602Z" fill="#1D1D1B"/>
<path d="M13.0148 298.705C15.1466 298.905 17.1006 298.631 18.8766 297.883C20.6549 297.11 22.109 295.973 23.2389 294.471C24.3466 292.942 24.9972 291.148 25.1907 289.088C25.3842 287.028 25.0779 285.156 24.272 283.472C23.4438 281.761 22.227 280.373 20.6214 279.306C19.0158 278.24 17.1471 277.606 15.0153 277.406C12.8589 277.203 10.9049 277.477 9.15343 278.227C7.37742 278.976 5.93556 280.114 4.82788 281.643C3.69799 283.145 3.0363 284.926 2.84281 286.986C2.64933 289.046 2.96666 290.931 3.79481 292.642C4.60075 294.326 5.80535 295.713 7.40862 296.804C8.98968 297.868 10.8584 298.502 13.0148 298.705ZM12.8144 300.838C10.9275 300.661 9.21769 300.178 7.68481 299.391C6.12742 298.601 4.81475 297.575 3.74681 296.311C2.65436 295.046 1.84988 293.609 1.33338 292.002C0.819183 290.37 0.648461 288.635 0.821215 286.795C0.993969 284.956 1.48371 283.295 2.29044 281.812C3.09947 280.305 4.15847 279.032 5.46744 277.992C6.7519 276.95 8.23271 276.186 9.90988 275.701C11.5625 275.213 13.3323 275.058 15.2191 275.235C17.1059 275.413 18.828 275.897 20.3854 276.686C21.9183 277.474 23.231 278.5 24.3234 279.766C25.3914 281.029 26.1825 282.477 26.6966 284.108C27.2131 285.716 27.385 287.439 27.2123 289.278C27.0395 291.118 26.5486 292.791 25.7396 294.298C24.9329 295.781 23.8873 297.043 22.6028 298.085C21.2938 299.125 19.813 299.889 18.1604 300.376C16.4832 300.862 14.7012 301.016 12.8144 300.838Z" fill="#1D1D1B"/>
<path d="M7.56901 244.669L7.97591 242.678L34.2711 248.06L8.23572 262.794L29.3587 267.118L28.9518 269.109L2.65658 263.726L28.7643 249.007L7.56901 244.669Z" fill="#1D1D1B"/>
<path d="M18.676 206.735L19.3152 204.884L43.9559 229.672L43.3166 231.523L18.676 206.735Z" fill="#1D1D1B"/>
<path d="M25.0964 190.468L25.8389 188.656L49.0448 214.794L48.3024 216.606L25.0964 190.468Z" fill="#1D1D1B"/>
</svg>
